# xmcd CD database file
#
# Track frame offsets:
#	150
#	16477
#	41242
#	57432
#	82180
#
# Disc length: 1318 seconds
#
# Revision: 0
# Processed by: cddbd v1.5.1PL2 Copyright (c) Steve Scherf et al.
# Submitted via: CDex 1.51
#
DISCID=41052405
DTITLE=BON'Z - 春風
DYEAR=2006
DGENRE=JPop
TTITLE0=春風
TTITLE1=君を・・・
TTITLE2=春風(Instrumental)
TTITLE3=君を・・・(Instrumental)
TTITLE4=ありがとう〜
EXTD=YEAR: 2006
EXTT0=
EXTT1=
EXTT2=
EXTT3=
EXTT4=
PLAYORDER=
